<svg width="43" height="16" viewBox="0 0 43 16" fill="none" xmlns="http://www.w3.org/2000/svg">
<path d="M18.3155 4.74688C18.7302 4.10176 19.4598 3.7792 20.5043 3.7792V5.15008C20.3814 5.12704 20.2701 5.11552 20.1702 5.11552C19.6096 5.11552 19.1718 5.28064 18.857 5.61088C18.5421 5.93344 18.3846 6.40192 18.3846 7.01632V10H16.9446V3.84832H18.3155V4.74688ZM27.7109 3.84832L24.8309 10.4954C24.5621 11.1635 24.2357 11.632 23.8517 11.9008C23.4677 12.1773 23.0031 12.3155 22.4578 12.3155C22.1506 12.3155 21.8472 12.2656 21.5477 12.1658C21.2482 12.0659 21.0024 11.9277 20.8104 11.751L21.3864 10.6912C21.5247 10.8218 21.6859 10.9254 21.8703 11.0022C22.0623 11.079 22.2543 11.1174 22.4463 11.1174C22.6997 11.1174 22.9071 11.0522 23.0683 10.9216C23.2373 10.791 23.3909 10.5722 23.5291 10.265L23.6328 10.023L20.9487 3.84832H22.4463L24.3816 8.39872L26.3285 3.84832H27.7109ZM32.0208 3.7792C32.6199 3.7792 33.1536 3.90976 33.6221 4.17088C34.0983 4.432 34.4707 4.80064 34.7395 5.2768C35.0083 5.75296 35.1427 6.30208 35.1427 6.92416C35.1427 7.54624 35.0083 8.0992 34.7395 8.58304C34.4707 9.0592 34.0983 9.42784 33.6221 9.68896C33.1536 9.95008 32.6199 10.0806 32.0208 10.0806C31.1914 10.0806 30.5347 9.80416 30.0509 9.2512V12.2349H28.6109V3.84832H29.9818V4.65472C30.2199 4.36288 30.5117 4.144 30.8573 3.99808C31.2106 3.85216 31.5984 3.7792 32.0208 3.7792ZM31.8595 8.848C32.3895 8.848 32.8234 8.67136 33.1613 8.31808C33.5069 7.9648 33.6797 7.50016 33.6797 6.92416C33.6797 6.34816 33.5069 5.88352 33.1613 5.53024C32.8234 5.17696 32.3895 5.00032 31.8595 5.00032C31.5139 5.00032 31.2029 5.08096 30.9264 5.24224C30.6499 5.39584 30.4311 5.61856 30.2698 5.9104C30.1085 6.20224 30.0279 6.54016 30.0279 6.92416C30.0279 7.30816 30.1085 7.64608 30.2698 7.93792C30.4311 8.22976 30.6499 8.45632 30.9264 8.6176C31.2029 8.7712 31.5139 8.848 31.8595 8.848ZM40.2063 9.66592C40.0374 9.80416 39.83 9.90784 39.5842 9.97696C39.3462 10.0461 39.0927 10.0806 38.8239 10.0806C38.1481 10.0806 37.6258 9.904 37.2572 9.55072C36.8886 9.19744 36.7042 8.68288 36.7042 8.00704V5.0464H35.6905V3.8944H36.7042V2.48896H38.1442V3.8944H39.7916V5.0464H38.1442V7.97248C38.1442 8.272 38.2172 8.5024 38.3631 8.66368C38.509 8.81728 38.7202 8.89408 38.9967 8.89408C39.3193 8.89408 39.5881 8.8096 39.8031 8.64064L40.2063 9.66592Z" fill="#071A52"/>
<path d="M8.72296 1.83921C9.14838 5.01324 10.0194 6.40613 12.4357 8.36325C12.7417 7.82208 12.9171 7.49536 13.2773 6.62681C13.8784 6.91673 14.2145 7.10769 14.8119 7.49503C14.2464 8.97136 13.8731 9.69996 13.104 10.8191C8.86349 8.63219 6.57266 5.37186 7.03983 0.0283575C10.2462 -0.137655 12.4884 0.409481 16 2.08727C15.7788 3.58238 15.6287 4.36139 15.3317 5.68418C14.7077 5.27677 14.3778 5.09837 13.8218 4.86557C14.0278 4.15897 14.088 3.76745 14.0694 3.07952C12.3056 2.33221 11.1854 2.01974 8.72296 1.83921Z" fill="url(#paint0_linear)"/>
<path d="M5.47014 0.198242C3.38473 0.619653 2.1814 1.0414 0 1.98429C0.854001 8.17547 2.55047 11.9831 8.11859 15.9998C9.93424 14.6201 10.867 13.8122 12.3016 12.2789C11.4937 11.8668 11.0501 11.5793 10.272 10.9889C9.1434 10.655 8.48796 10.6112 7.30178 10.6417C8.12012 11.5215 8.58961 11.9699 9.45518 12.651C8.99368 13.1517 8.69273 13.3993 8.09383 13.792C6.39598 12.3856 5.63182 11.4967 4.48007 9.79824C5.72684 9.07666 6.52019 8.89958 8.09383 8.85561C7.58975 8.24318 7.33554 7.87768 6.95525 7.16878C5.47574 7.32637 4.72738 7.55004 3.49 8.11142C2.65653 6.06829 2.31581 4.9374 1.98014 2.95173C2.77462 2.61691 3.15753 2.4996 3.73752 2.40599C3.86049 3.84884 4.05932 4.58291 4.48007 5.85406C5.10747 5.60534 5.46867 5.50965 6.13844 5.45716C5.49626 3.37198 5.35135 2.22088 5.47014 0.198242Z" fill="url(#paint1_linear)"/>
<defs>
<linearGradient id="paint0_linear" x1="11.49" y1="0" x2="11.49" y2="10.8191" gradientUnits="userSpaceOnUse">
<stop offset="0.0625" stop-color="#286FED"/>
<stop offset="0.479167" stop-color="#24A6E0"/>
<stop offset="0.885417" stop-color="#24CFD6"/>
</linearGradient>
<linearGradient id="paint1_linear" x1="6.15082" y1="0.198242" x2="6.15082" y2="15.9998" gradientUnits="userSpaceOnUse">
<stop offset="0.0625" stop-color="#286FED"/>
<stop offset="0.479167" stop-color="#24A6E0"/>
<stop offset="0.885417" stop-color="#24CFD6"/>
</linearGradient>
</defs>
</svg>
